{
  "accessors": [
    {
      "bufferView": 2,
      "componentType": 5126,
      "count": 35546,
      "max": [
        0.9497960209846497,
        1.4002000093460083,
        0.3156430125236511
      ],
      "min": [
        -0.9489910006523132,
        0.0,
        -0.31602999567985535
      ],
      "type": "VEC3"
    },
    {
      "bufferView": 2,
      "byteOffset": 426552,
      "componentType": 5126,
      "count": 35546,
      "max": [
        0.9999893307685852,
        1.0,
        0.999994695186615
      ],
      "min": [
        -0.999993622303009,
        -1.0,
        -0.9999944567680359
      ],
      "type": "VEC3"
    },
    {
      "bufferView": 3,
      "componentType": 5126,
      "count": 35546,
      "max": [
        0.9999980330467224,
        0.9999399185180664,
        0.999995768070221,
        1.0
      ],
      "min": [
        -0.9999991059303284,
        -0.9999976754188538,
        -1.0,
        -1.0
      ],
      "type": "VEC4"
    },
    {
      "bufferView": 1,
      "componentType": 5126,
      "count": 35546,
      "max": [
        0.991595983505249,
        0.9991379976272583
      ],
      "min": [
        0.0008619999862276018,
        0.0008619999862276018
      ],
      "type": "VEC2"
    },
    {
      "bufferView": 1,
      "byteOffset": 284368,
      "componentType": 5126,
      "count": 35546,
      "max": [
        0.991595983505249,
        0.9991379976272583
      ],
      "min": [
        0.0008619999862276018,
        0.0008619999862276018
      ],
      "type": "VEC2"
    },
    {
      "bufferView": 1,
      "byteOffset": 568736,
      "componentType": 5126,
      "count": 35546,
      "max": [
        0.991595983505249,
        0.9991379976272583
      ],
      "min": [
        0.0008619999862276018,
        0.0008619999862276018
      ],
      "type": "VEC2"
    },
    {
      "bufferView": 0,
      "componentType": 5125,
      "count": 120000,
      "type": "SCALAR"
    }
  ],
  "asset": {
    "extras": {
      "author": "mohamedhussien (https://sketchfab.com/mohamedhussien)",
      "license": "CC-BY-4.0 (http://creativecommons.org/licenses/by/4.0/)",
      "source": "https://sketchfab.com/3d-models/rock-39-f56f4adb41824360bdac7206d162a851",
      "title": "Rock (39)"
    },
    "generator": "Sketchfab-16.73.0",
    "version": "2.0"
  },
  "bufferViews": [
    {
      "buffer": 0,
      "byteLength": 480000,
      "name": "floatBufferViews",
      "target": 34963
    },
    {
      "buffer": 0,
      "byteLength": 853104,
      "byteOffset": 480000,
      "byteStride": 8,
      "name": "floatBufferViews",
      "target": 34962
    },
    {
      "buffer": 0,
      "byteLength": 853104,
      "byteOffset": 1333104,
      "byteStride": 12,
      "name": "floatBufferViews",
      "target": 34962
    },
    {
      "buffer": 0,
      "byteLength": 568736,
      "byteOffset": 2186208,
      "byteStride": 16,
      "name": "floatBufferViews",
      "target": 34962
    }
  ],
  "buffers": [
    {
      "byteLength": 2754944,
      "uri": "scene.bin"
    }
  ],
  "images": [
    {
      "uri": "textures/Default_OBJ.039_baseColor.jpeg"
    },
    {
      "uri": "textures/Default_OBJ.039_metallicRoughness.png"
    },
    {
      "uri": "textures/Default_OBJ.039_normal.png"
    }
  ],
  "materials": [
    {
      "doubleSided": true,
      "name": "Default_OBJ.039",
      "normalTexture": {
        "index": 2
      },
      "pbrMetallicRoughness": {
        "baseColorTexture": {
          "index": 0
        },
        "metallicRoughnessTexture": {
          "index": 1
        }
      }
    }
  ],
  "meshes": [
    {
      "name": "model.034_Default OBJ.039_0",
      "primitives": [
        {
          "attributes": {
            "NORMAL": 1,
            "POSITION": 0,
            "TANGENT": 2,
            "TEXCOORD_0": 3,
            "TEXCOORD_1": 4,
            "TEXCOORD_2": 5
          },
          "indices": 6,
          "material": 0,
          "mode": 4
        }
      ]
    }
  ],
  "nodes": [
    {
      "children": [
        1
      ],
      "matrix": [
        1.0,
        0.0,
        0.0,
        0.0,
        0.0,
        2.220446049250313e-16,
        -1.0,
        0.0,
        0.0,
        1.0,
        2.220446049250313e-16,
        0.0,
        0.0,
        0.0,
        0.0,
        1.0
      ],
      "name": "Sketchfab_model"
    },
    {
      "children": [
        2
      ],
      "matrix": [
        0.009999999776482582,
        0.0,
        0.0,
        0.0,
        0.0,
        0.0,
        0.009999999776482582,
        0.0,
        0.0,
        -0.009999999776482582,
        0.0,
        0.0,
        0.0,
        0.0,
        0.0,
        1.0
      ],
      "name": "SOURCE.fbx"
    },
    {
      "children": [
        3
      ],
      "name": "RootNode"
    },
    {
      "children": [
        4
      ],
      "matrix": [
        100.0,
        0.0,
        0.0,
        0.0,
        0.0,
        99.99999999999866,
        1.6292067073209114e-05,
        0.0,
        0.0,
        -1.6292067073209114e-05,
        99.99999999999866,
        0.0,
        0.0,
        0.0,
        0.0,
        1.0
      ],
      "name": "model.034"
    },
    {
      "mesh": 0,
      "name": "model.034_Default OBJ.039_0"
    }
  ],
  "samplers": [
    {
      "magFilter": 9729,
      "minFilter": 9987,
      "wrapS": 10497,
      "wrapT": 10497
    }
  ],
  "scene": 0,
  "scenes": [
    {
      "name": "Sketchfab_Scene",
      "nodes": [
        0
      ]
    }
  ],
  "textures": [
    {
      "sampler": 0,
      "source": 0
    },
    {
      "sampler": 0,
      "source": 1
    },
    {
      "sampler": 0,
      "source": 2
    }
  ]
}
