{
  "accessors": [
    {
      "bufferView": 2,
      "componentType": 5126,
      "count": 65532,
      "max": [
        15.123600006103516,
        0.8434709906578064,
        15.406000137329102
      ],
      "min": [
        -17.516599655151367,
        -68.93313598632813,
        -10.09469985961914
      ],
      "type": "VEC3"
    },
    {
      "bufferView": 2,
      "byteOffset": 786384,
      "componentType": 5126,
      "count": 65532,
      "max": [
        0.9999162554740906,
        0.9993892908096313,
        0.9999675154685974
      ],
      "min": [
        -0.9999947547912598,
        -0.9999992847442627,
        -0.9999913573265076
      ],
      "type": "VEC3"
    },
    {
      "bufferView": 1,
      "componentType": 5126,
      "count": 65532,
      "max": [
        0.9997105598449707,
        0.9235838651657104
      ],
      "min": [
        0.000244140625,
        0.00024982227478176355
      ],
      "type": "VEC2"
    },
    {
      "bufferView": 0,
      "componentType": 5125,
      "count": 321378,
      "type": "SCALAR"
    },
    {
      "bufferView": 2,
      "byteOffset": 1572768,
      "componentType": 5126,
      "count": 65532,
      "max": [
        15.19909954071045,
        0.8434709906578064,
        15.399800300598145
      ],
      "min": [
        -17.493999481201172,
        -68.48420715332031,
        -10.10420036315918
      ],
      "type": "VEC3"
    },
    {
      "bufferView": 2,
      "byteOffset": 2359152,
      "componentType": 5126,
      "count": 65532,
      "max": [
        0.9999447464942932,
        0.9998645782470703,
        0.9999861717224121
      ],
      "min": [
        -0.9999994039535522,
        -0.9999943375587463,
        -0.9999617338180542
      ],
      "type": "VEC3"
    },
    {
      "bufferView": 1,
      "byteOffset": 524256,
      "componentType": 5126,
      "count": 65532,
      "max": [
        0.9997488856315613,
        0.9831541776657104
      ],
      "min": [
        0.000244140625,
        0.0002525640884414315
      ],
      "type": "VEC2"
    },
    {
      "bufferView": 0,
      "byteOffset": 1285512,
      "componentType": 5125,
      "count": 254340,
      "type": "SCALAR"
    },
    {
      "bufferView": 2,
      "byteOffset": 3145536,
      "componentType": 5126,
      "count": 34910,
      "max": [
        13.632599830627441,
        0.41317498683929443,
        14.568099975585938
      ],
      "min": [
        -17.050399780273438,
        -68.48340606689453,
        -9.855979919433594
      ],
      "type": "VEC3"
    },
    {
      "bufferView": 2,
      "byteOffset": 3564456,
      "componentType": 5126,
      "count": 34910,
      "max": [
        0.9999858140945435,
        0.9997065663337708,
        0.9999987483024597
      ],
      "min": [
        -0.9999365210533142,
        -0.9999920129776001,
        -0.9999739527702332
      ],
      "type": "VEC3"
    },
    {
      "bufferView": 1,
      "byteOffset": 1048512,
      "componentType": 5126,
      "count": 34910,
      "max": [
        0.9997338652610779,
        0.9704588651657104
      ],
      "min": [
        0.000244140625,
        0.00024982227478176355
      ],
      "type": "VEC2"
    },
    {
      "bufferView": 0,
      "byteOffset": 2302872,
      "componentType": 5125,
      "count": 110979,
      "type": "SCALAR"
    }
  ],
  "asset": {
    "extras": {
      "author": "Phil.Devine (https://sketchfab.com/Phil.Devine)",
      "license": "CC-BY-4.0 (http://creativecommons.org/licenses/by/4.0/)",
      "source": "https://sketchfab.com/3d-models/saguaro-cd04754f15b7469a89fdcfb701a2522c",
      "title": "Saguaro"
    },
    "generator": "Sketchfab-12.66.0",
    "version": "2.0"
  },
  "bufferViews": [
    {
      "buffer": 0,
      "byteLength": 2746788,
      "name": "floatBufferViews",
      "target": 34963
    },
    {
      "buffer": 0,
      "byteLength": 1327792,
      "byteOffset": 2746788,
      "byteStride": 8,
      "name": "floatBufferViews",
      "target": 34962
    },
    {
      "buffer": 0,
      "byteLength": 3983376,
      "byteOffset": 4074580,
      "byteStride": 12,
      "name": "floatBufferViews",
      "target": 34962
    }
  ],
  "buffers": [
    {
      "byteLength": 8057956,
      "uri": "scene.bin"
    }
  ],
  "extensionsUsed": [
    "KHR_materials_unlit"
  ],
  "images": [
    {
      "uri": "textures/Saguaro_Cactus_u1_v1_baseColor.jpeg"
    }
  ],
  "materials": [
    {
      "doubleSided": true,
      "extensions": {
        "KHR_materials_unlit": {}
      },
      "name": "Saguaro_Cactus_u1_v1",
      "pbrMetallicRoughness": {
        "baseColorTexture": {
          "index": 0
        },
        "metallicFactor": 0.0
      }
    }
  ],
  "meshes": [
    {
      "name": "Object_0",
      "primitives": [
        {
          "attributes": {
            "NORMAL": 1,
            "POSITION": 0,
            "TEXCOORD_0": 2
          },
          "indices": 3,
          "material": 0,
          "mode": 4
        }
      ]
    },
    {
      "name": "Object_1",
      "primitives": [
        {
          "attributes": {
            "NORMAL": 5,
            "POSITION": 4,
            "TEXCOORD_0": 6
          },
          "indices": 7,
          "material": 0,
          "mode": 4
        }
      ]
    },
    {
      "name": "Object_2",
      "primitives": [
        {
          "attributes": {
            "NORMAL": 9,
            "POSITION": 8,
            "TEXCOORD_0": 10
          },
          "indices": 11,
          "material": 0,
          "mode": 4
        }
      ]
    }
  ],
  "nodes": [
    {
      "children": [
        1
      ],
      "matrix": [
        1.0,
        0.0,
        0.0,
        0.0,
        0.0,
        -1.0,
        -4.440892098500626e-16,
        0.0,
        0.0,
        4.440892098500626e-16,
        -1.0,
        0.0,
        0.0,
        -31.39379310607911,
        36.695571899414055,
        1.0
      ],
      "name": "Sketchfab_model"
    },
    {
      "children": [
        2,
        3,
        4
      ],
      "name": "Saguaro_Cactus.obj.cleaner.materialmerger.gles"
    },
    {
      "mesh": 0,
      "name": "Object_2"
    },
    {
      "mesh": 1,
      "name": "Object_3"
    },
    {
      "mesh": 2,
      "name": "Object_4"
    }
  ],
  "samplers": [
    {
      "magFilter": 9729,
      "minFilter": 9987,
      "wrapS": 10497,
      "wrapT": 10497
    }
  ],
  "scene": 0,
  "scenes": [
    {
      "name": "Sketchfab_Scene",
      "nodes": [
        0
      ]
    }
  ],
  "textures": [
    {
      "sampler": 0,
      "source": 0
    }
  ]
}
