{
  "accessors": [
    {
      "bufferView": 2,
      "componentType": 5126,
      "count": 33306,
      "max": [
        0.9500380158424377,
        1.7335389852523804,
        0.4496909976005554
      ],
      "min": [
        -0.9505900144577026,
        0.0,
        -0.4085110127925873
      ],
      "type": "VEC3"
    },
    {
      "bufferView": 2,
      "byteOffset": 399672,
      "componentType": 5126,
      "count": 33306,
      "max": [
        0.9999862313270569,
        0.9999461770057678,
        0.9999953508377075
      ],
      "min": [
        -0.9999943971633911,
        -0.9999460577964783,
        -0.9999366402626038
      ],
      "type": "VEC3"
    },
    {
      "bufferView": 3,
      "componentType": 5126,
      "count": 33306,
      "max": [
        0.9999905228614807,
        0.9999884963035583,
        0.9999994039535522,
        1.0
      ],
      "min": [
        -0.9999952912330627,
        -0.9999973177909851,
        -0.9999951124191284,
        1.0
      ],
      "type": "VEC4"
    },
    {
      "bufferView": 1,
      "componentType": 5126,
      "count": 33306,
      "max": [
        0.9992629885673523,
        0.9617019891738892
      ],
      "min": [
        0.000737000023946166,
        0.000737000023946166
      ],
      "type": "VEC2"
    },
    {
      "bufferView": 1,
      "byteOffset": 266448,
      "componentType": 5126,
      "count": 33306,
      "max": [
        0.9992629885673523,
        0.9617019891738892
      ],
      "min": [
        0.000737000023946166,
        0.000737000023946166
      ],
      "type": "VEC2"
    },
    {
      "bufferView": 1,
      "byteOffset": 532896,
      "componentType": 5126,
      "count": 33306,
      "max": [
        0.9992629885673523,
        0.9617019891738892
      ],
      "min": [
        0.000737000023946166,
        0.000737000023946166
      ],
      "type": "VEC2"
    },
    {
      "bufferView": 0,
      "componentType": 5125,
      "count": 120000,
      "type": "SCALAR"
    }
  ],
  "asset": {
    "extras": {
      "author": "mohamedhussien (https://sketchfab.com/mohamedhussien)",
      "license": "CC-BY-4.0 (http://creativecommons.org/licenses/by/4.0/)",
      "source": "https://sketchfab.com/3d-models/rock-15-693dae21edda436694432530f8317506",
      "title": "Rock (15)"
    },
    "generator": "Sketchfab-16.72.0",
    "version": "2.0"
  },
  "bufferViews": [
    {
      "buffer": 0,
      "byteLength": 480000,
      "name": "floatBufferViews",
      "target": 34963
    },
    {
      "buffer": 0,
      "byteLength": 799344,
      "byteOffset": 480000,
      "byteStride": 8,
      "name": "floatBufferViews",
      "target": 34962
    },
    {
      "buffer": 0,
      "byteLength": 799344,
      "byteOffset": 1279344,
      "byteStride": 12,
      "name": "floatBufferViews",
      "target": 34962
    },
    {
      "buffer": 0,
      "byteLength": 532896,
      "byteOffset": 2078688,
      "byteStride": 16,
      "name": "floatBufferViews",
      "target": 34962
    }
  ],
  "buffers": [
    {
      "byteLength": 2611584,
      "uri": "scene.bin"
    }
  ],
  "images": [
    {
      "uri": "textures/Default_OBJ.014_baseColor.jpeg"
    },
    {
      "uri": "textures/Default_OBJ.014_metallicRoughness.png"
    },
    {
      "uri": "textures/Default_OBJ.014_normal.png"
    }
  ],
  "materials": [
    {
      "doubleSided": true,
      "name": "Default_OBJ.014",
      "normalTexture": {
        "index": 2
      },
      "pbrMetallicRoughness": {
        "baseColorTexture": {
          "index": 0
        },
        "metallicRoughnessTexture": {
          "index": 1
        }
      }
    }
  ],
  "meshes": [
    {
      "name": "model.009_Default OBJ.014_0",
      "primitives": [
        {
          "attributes": {
            "NORMAL": 1,
            "POSITION": 0,
            "TANGENT": 2,
            "TEXCOORD_0": 3,
            "TEXCOORD_1": 4,
            "TEXCOORD_2": 5
          },
          "indices": 6,
          "material": 0,
          "mode": 4
        }
      ]
    }
  ],
  "nodes": [
    {
      "children": [
        1
      ],
      "matrix": [
        1.0,
        0.0,
        0.0,
        0.0,
        0.0,
        2.220446049250313e-16,
        -1.0,
        0.0,
        0.0,
        1.0,
        2.220446049250313e-16,
        0.0,
        0.0,
        0.0,
        0.0,
        1.0
      ],
      "name": "Sketchfab_model"
    },
    {
      "children": [
        2
      ],
      "matrix": [
        0.009999999776482582,
        0.0,
        0.0,
        0.0,
        0.0,
        0.0,
        0.009999999776482582,
        0.0,
        0.0,
        -0.009999999776482582,
        0.0,
        0.0,
        0.0,
        0.0,
        0.0,
        1.0
      ],
      "name": "SOURCE.fbx"
    },
    {
      "children": [
        3
      ],
      "name": "RootNode"
    },
    {
      "children": [
        4
      ],
      "matrix": [
        100.0,
        0.0,
        0.0,
        0.0,
        0.0,
        99.99999999999866,
        1.6292067073209114e-05,
        0.0,
        0.0,
        -1.6292067073209114e-05,
        99.99999999999866,
        0.0,
        0.0,
        0.0,
        0.0,
        1.0
      ],
      "name": "model.009"
    },
    {
      "mesh": 0,
      "name": "model.009_Default OBJ.014_0"
    }
  ],
  "samplers": [
    {
      "magFilter": 9729,
      "minFilter": 9987,
      "wrapS": 10497,
      "wrapT": 10497
    }
  ],
  "scene": 0,
  "scenes": [
    {
      "name": "Sketchfab_Scene",
      "nodes": [
        0
      ]
    }
  ],
  "textures": [
    {
      "sampler": 0,
      "source": 0
    },
    {
      "sampler": 0,
      "source": 1
    },
    {
      "sampler": 0,
      "source": 2
    }
  ]
}
