{"asset": {"generator": "Khronos glTF Blender I/O v5.2.39", "version": "2.0"}, "scene": 0, "scenes": [{"name": "Scene", "nodes": [7]}], "nodes": [{"mesh": 0, "name": "model.006_Default OBJ.011_0"}, {"mesh": 1, "name": "model.006_Default OBJ.011_0.001"}, {"mesh": 2, "name": "model.006_Default OBJ.011_0.002"}, {"mesh": 3, "name": "model.006_Default OBJ.011_0.003"}, {"children": [0, 1, 2, 3], "name": "model.006", "scale": [100, 100, 100], "translation": [0, 5.119416528032161e-06, -1.4500150427920744e-05]}, {"children": [4], "name": "RootNode", "translation": [0, 5.119414709042758e-06, -1.4500150427920744e-05]}, {"children": [5], "name": "SOURCE.fbx", "rotation": [0.70710688829422, 0, 0, 0.7071066498756409], "scale": [0.009999999776482582, 0.010000001639127731, 0.010000001639127731]}, {"children": [6], "name": "Sketchfab_model", "rotation": [-0.7071070075035095, 0, 0, 0.7071065902709961], "scale": [5.455077171325684, 5.455077648162842, 5.455077648162842], "translation": [-12.736104965209961, -12.097952842712402, -6.593889236450195]}], "materials": [{"doubleSided": true, "name": "Default_OBJ.011", "normalTexture": {"index": 0, "texCoord": 1}, "pbrMetallicRoughness": {"baseColorTexture": {"index": 1}, "metallicRoughnessTexture": {"index": 2}}}], "meshes": [{"name": "model.006_Default OBJ.011_0", "primitives": [{"attributes": {"POSITION": 0, "NORMAL": 1, "TEXCOORD_0": 2, "TEXCOORD_1": 3, "TEXCOORD_2": 4}, "indices": 5, "material": 0}]}, {"name": "model.006_Default OBJ.011_0.001", "primitives": [{"attributes": {"POSITION": 6, "NORMAL": 7, "TEXCOORD_0": 8, "TEXCOORD_1": 9, "TEXCOORD_2": 10}, "indices": 11, "material": 0}]}, {"name": "model.006_Default OBJ.011_0.002", "primitives": [{"attributes": {"POSITION": 12, "NORMAL": 13, "TEXCOORD_0": 14, "TEXCOORD_1": 15, "TEXCOORD_2": 16}, "indices": 17, "material": 0}]}, {"name": "model.006_Default OBJ.011_0.003", "primitives": [{"attributes": {"POSITION": 18, "NORMAL": 19, "TEXCOORD_0": 20, "TEXCOORD_1": 21, "TEXCOORD_2": 22}, "indices": 23, "material": 0}]}], "textures": [{"sampler": 0, "source": 0}, {"sampler": 0, "source": 1}, {"sampler": 0, "source": 2}], "images": [{"mimeType": "image/png", "name": "Default_OBJ.011_normal", "uri": "textures/Default_OBJ.011_normal.png"}, {"mimeType": "image/jpeg", "name": "Default_OBJ.011_baseColor", "uri": "textures/Default_OBJ.011_baseColor.jpeg"}, {"mimeType": "image/png", "name": "Default_OBJ.011_metallicRoughness", "uri": "textures/Default_OBJ.011_metallicRoughness.png"}], "accessors": [{"bufferView": 0, "componentType": 5126, "count": 65168, "max": [0.9407539963722229, 1.152999997138977, 0.6796209812164307], "min": [-0.4823620021343231, 0, -0.6026489734649658], "type": "VEC3"}, {"bufferView": 1, "componentType": 5126, "count": 65168, "type": "VEC3"}, {"bufferView": 2, "componentType": 5126, "count": 65168, "type": "VEC2"}, {"bufferView": 3, "componentType": 5126, "count": 65168, "type": "VEC2"}, {"bufferView": 4, "componentType": 5126, "count": 65168, "type": "VEC2"}, {"bufferView": 5, "componentType": 5123, "count": 192525, "type": "SCALAR"}, {"bufferView": 6, "componentType": 5126, "count": 65746, "max": [0.5967479944229126, 1.4171359539031982, 0.7764620184898376], "min": [-0.5611270070075989, 0.001303000026382506, -0.6493890285491943], "type": "VEC3"}, {"bufferView": 7, "componentType": 5126, "count": 65746, "type": "VEC3"}, {"bufferView": 8, "componentType": 5126, "count": 65746, "type": "VEC2"}, {"bufferView": 9, "componentType": 5126, "count": 65746, "type": "VEC2"}, {"bufferView": 10, "componentType": 5126, "count": 65746, "type": "VEC2"}, {"bufferView": 11, "componentType": 5125, "count": 157860, "type": "SCALAR"}, {"bufferView": 12, "componentType": 5126, "count": 65739, "max": [0.9407539963722229, 1.4788780212402344, 0.7718170285224915], "min": [-0.9471210241317749, 0.001554999966174364, -0.6946189999580383], "type": "VEC3"}, {"bufferView": 13, "componentType": 5126, "count": 65739, "type": "VEC3"}, {"bufferView": 14, "componentType": 5126, "count": 65739, "type": "VEC2"}, {"bufferView": 15, "componentType": 5126, "count": 65739, "type": "VEC2"}, {"bufferView": 16, "componentType": 5126, "count": 65739, "type": "VEC2"}, {"bufferView": 17, "componentType": 5125, "count": 180387, "type": "SCALAR"}, {"bufferView": 18, "componentType": 5126, "count": 33501, "max": [-0.01954299956560135, 1.4759750366210938, 0.775642991065979], "min": [-0.705269992351532, 0.001303000026382506, -0.6894199848175049], "type": "VEC3"}, {"bufferView": 19, "componentType": 5126, "count": 33501, "type": "VEC3"}, {"bufferView": 20, "componentType": 5126, "count": 33501, "type": "VEC2"}, {"bufferView": 21, "componentType": 5126, "count": 33501, "type": "VEC2"}, {"bufferView": 22, "componentType": 5126, "count": 33501, "type": "VEC2"}, {"bufferView": 23, "componentType": 5123, "count": 67761, "type": "SCALAR"}], "bufferViews": [{"buffer": 0, "byteLength": 782016, "byteOffset": 0, "target": 34962}, {"buffer": 0, "byteLength": 782016, "byteOffset": 782016, "target": 34962}, {"buffer": 0, "byteLength": 521344, "byteOffset": 1564032, "target": 34962}, {"buffer": 0, "byteLength": 521344, "byteOffset": 2085376, "target": 34962}, {"buffer": 0, "byteLength": 521344, "byteOffset": 2606720, "target": 34962}, {"buffer": 0, "byteLength": 385050, "byteOffset": 3128064, "target": 34963}, {"buffer": 0, "byteLength": 788952, "byteOffset": 3513116, "target": 34962}, {"buffer": 0, "byteLength": 788952, "byteOffset": 4302068, "target": 34962}, {"buffer": 0, "byteLength": 525968, "byteOffset": 5091020, "target": 34962}, {"buffer": 0, "byteLength": 525968, "byteOffset": 5616988, "target": 34962}, {"buffer": 0, "byteLength": 525968, "byteOffset": 6142956, "target": 34962}, {"buffer": 0, "byteLength": 631440, "byteOffset": 6668924, "target": 34963}, {"buffer": 0, "byteLength": 788868, "byteOffset": 7300364, "target": 34962}, {"buffer": 0, "byteLength": 788868, "byteOffset": 8089232, "target": 34962}, {"buffer": 0, "byteLength": 525912, "byteOffset": 8878100, "target": 34962}, {"buffer": 0, "byteLength": 525912, "byteOffset": 9404012, "target": 34962}, {"buffer": 0, "byteLength": 525912, "byteOffset": 9929924, "target": 34962}, {"buffer": 0, "byteLength": 721548, "byteOffset": 10455836, "target": 34963}, {"buffer": 0, "byteLength": 402012, "byteOffset": 11177384, "target": 34962}, {"buffer": 0, "byteLength": 402012, "byteOffset": 11579396, "target": 34962}, {"buffer": 0, "byteLength": 268008, "byteOffset": 11981408, "target": 34962}, {"buffer": 0, "byteLength": 268008, "byteOffset": 12249416, "target": 34962}, {"buffer": 0, "byteLength": 268008, "byteOffset": 12517424, "target": 34962}, {"buffer": 0, "byteLength": 135522, "byteOffset": 12785432, "target": 34963}], "samplers": [{"magFilter": 9729, "minFilter": 9987}], "buffers": [{"byteLength": 12920956, "uri": "scene.bin"}]}