{
  "accessors": [
    {
      "bufferView": 2,
      "componentType": 5126,
      "count": 51596,
      "max": [
        0.9504680037498474,
        1.0160449743270874,
        0.8498600125312805
      ],
      "min": [
        -0.9493399858474731,
        0.0,
        -0.8514990210533142
      ],
      "type": "VEC3"
    },
    {
      "bufferView": 2,
      "byteOffset": 619152,
      "componentType": 5126,
      "count": 51596,
      "max": [
        1.0,
        0.999999463558197,
        0.9999532699584961
      ],
      "min": [
        -0.9999887943267822,
        -0.9999966621398926,
        -0.9999975562095642
      ],
      "type": "VEC3"
    },
    {
      "bufferView": 3,
      "componentType": 5126,
      "count": 51596,
      "max": [
        0.9999940395355225,
        0.9999856352806091,
        0.9999598860740662,
        1.0
      ],
      "min": [
        -0.9999955296516418,
        -0.9999992251396179,
        -0.9999947547912598,
        -1.0
      ],
      "type": "VEC4"
    },
    {
      "bufferView": 1,
      "componentType": 5126,
      "count": 51596,
      "max": [
        0.9985030293464661,
        0.9970890283584595
      ],
      "min": [
        0.001496999990195036,
        0.001496999990195036
      ],
      "type": "VEC2"
    },
    {
      "bufferView": 1,
      "byteOffset": 412768,
      "componentType": 5126,
      "count": 51596,
      "max": [
        0.9985030293464661,
        0.9970890283584595
      ],
      "min": [
        0.001496999990195036,
        0.001496999990195036
      ],
      "type": "VEC2"
    },
    {
      "bufferView": 1,
      "byteOffset": 825536,
      "componentType": 5126,
      "count": 51596,
      "max": [
        0.9985030293464661,
        0.9970890283584595
      ],
      "min": [
        0.001496999990195036,
        0.001496999990195036
      ],
      "type": "VEC2"
    },
    {
      "bufferView": 0,
      "componentType": 5125,
      "count": 120000,
      "type": "SCALAR"
    }
  ],
  "asset": {
    "extras": {
      "author": "mohamedhussien (https://sketchfab.com/mohamedhussien)",
      "license": "CC-BY-4.0 (http://creativecommons.org/licenses/by/4.0/)",
      "source": "https://sketchfab.com/3d-models/rock-41-190182a8abbe4efcb7a6810ed322cccd",
      "title": "Rock (41)"
    },
    "generator": "Sketchfab-16.73.0",
    "version": "2.0"
  },
  "bufferViews": [
    {
      "buffer": 0,
      "byteLength": 480000,
      "name": "floatBufferViews",
      "target": 34963
    },
    {
      "buffer": 0,
      "byteLength": 1238304,
      "byteOffset": 480000,
      "byteStride": 8,
      "name": "floatBufferViews",
      "target": 34962
    },
    {
      "buffer": 0,
      "byteLength": 1238304,
      "byteOffset": 1718304,
      "byteStride": 12,
      "name": "floatBufferViews",
      "target": 34962
    },
    {
      "buffer": 0,
      "byteLength": 825536,
      "byteOffset": 2956608,
      "byteStride": 16,
      "name": "floatBufferViews",
      "target": 34962
    }
  ],
  "buffers": [
    {
      "byteLength": 3782144,
      "uri": "scene.bin"
    }
  ],
  "images": [
    {
      "uri": "textures/Default_OBJ.041_baseColor.jpeg"
    },
    {
      "uri": "textures/Default_OBJ.041_metallicRoughness.png"
    },
    {
      "uri": "textures/Default_OBJ.041_normal.png"
    }
  ],
  "materials": [
    {
      "doubleSided": true,
      "name": "Default_OBJ.041",
      "normalTexture": {
        "index": 2
      },
      "pbrMetallicRoughness": {
        "baseColorTexture": {
          "index": 0
        },
        "metallicRoughnessTexture": {
          "index": 1
        }
      }
    }
  ],
  "meshes": [
    {
      "name": "model.036_Default OBJ.041_0",
      "primitives": [
        {
          "attributes": {
            "NORMAL": 1,
            "POSITION": 0,
            "TANGENT": 2,
            "TEXCOORD_0": 3,
            "TEXCOORD_1": 4,
            "TEXCOORD_2": 5
          },
          "indices": 6,
          "material": 0,
          "mode": 4
        }
      ]
    }
  ],
  "nodes": [
    {
      "children": [
        1
      ],
      "matrix": [
        1.0,
        0.0,
        0.0,
        0.0,
        0.0,
        2.220446049250313e-16,
        -1.0,
        0.0,
        0.0,
        1.0,
        2.220446049250313e-16,
        0.0,
        0.0,
        0.0,
        0.0,
        1.0
      ],
      "name": "Sketchfab_model"
    },
    {
      "children": [
        2
      ],
      "matrix": [
        0.009999999776482582,
        0.0,
        0.0,
        0.0,
        0.0,
        0.0,
        0.009999999776482582,
        0.0,
        0.0,
        -0.009999999776482582,
        0.0,
        0.0,
        0.0,
        0.0,
        0.0,
        1.0
      ],
      "name": "SOURCE.fbx"
    },
    {
      "children": [
        3
      ],
      "name": "RootNode"
    },
    {
      "children": [
        4
      ],
      "matrix": [
        100.0,
        0.0,
        0.0,
        0.0,
        0.0,
        99.99999999999866,
        1.6292067073209114e-05,
        0.0,
        0.0,
        -1.6292067073209114e-05,
        99.99999999999866,
        0.0,
        0.0,
        0.0,
        0.0,
        1.0
      ],
      "name": "model.036"
    },
    {
      "mesh": 0,
      "name": "model.036_Default OBJ.041_0"
    }
  ],
  "samplers": [
    {
      "magFilter": 9729,
      "minFilter": 9987,
      "wrapS": 10497,
      "wrapT": 10497
    }
  ],
  "scene": 0,
  "scenes": [
    {
      "name": "Sketchfab_Scene",
      "nodes": [
        0
      ]
    }
  ],
  "textures": [
    {
      "sampler": 0,
      "source": 0
    },
    {
      "sampler": 0,
      "source": 1
    },
    {
      "sampler": 0,
      "source": 2
    }
  ]
}
